Land_normalized_Motion_pl09
version=1
nRows=12
nColumns=43
inDegrees=yes
endheader
time		pelvis_tilt		pelvis_list		pelvis_rotation		pelvis_tx		pelvis_ty		pelvis_tz		hip_flexion_r		hip_adduction_r		hip_rotation_r		knee_angle_r		ankle_angle_r		subtalar_angle_r		mtp_angle_r		hip_flexion_l		hip_adduction_l		hip_rotation_l		knee_angle_l		ankle_angle_l		subtalar_angle_l		mtp_angle_l		lumbar_extension		lumbar_bending		lumbar_rotation		neck_flexion		neck_lateral_bending		neck_rotation		arm_flex_r		arm_add_r		arm_rot_r		elbow_flex_r		pro_sup_r		wrist_flex_r		wrist_dev_r		hand_finger_flex_r		arm_flex_l		arm_add_l		arm_rot_l		elbow_flex_l		pro_sup_l		wrist_flex_l		wrist_dev_l		hand_finger_flex_l		
2.907955		-3.540917		-7.382858		88.040401		0.009181		0.460286		0.480295		98.786855		1.262008		4.911257		-126.267718		15.897443		2.701834		16.265534		94.864831		-10.233954		-0.616314		-123.829720		20.309446		5.779637		22.233412		-63.314924		-7.345241		0.697714		20.170594		7.843223		-5.253425		80.690737		-28.650375		7.272156		73.952166		111.673145		-12.589399		-15.262099		-32.021191		101.891431		-27.418874		31.641097		67.730911		127.339062		-20.917559		-13.489641		-12.391076		
2.911061		-3.664897		-7.730895		87.837815		0.009812		0.458982		0.480535		99.291775		1.366071		5.199500		-126.370689		16.126606		3.822083		16.521602		95.325178		-10.688239		-0.418133		-123.957364		20.486289		6.930903		22.350589		-63.341945		-7.620624		0.610406		20.371122		7.798897		-5.268281		82.217812		-28.248225		7.468368		73.285664		110.995870		-12.318468		-15.118915		-32.132625		103.278444		-26.708393		31.913136		66.720068		126.660879		-20.532450		-13.029584		-12.625162		
2.914167		-3.873254		-7.990470		87.516386		0.010686		0.457776		0.480758		99.761853		1.609043		5.627703		-126.504634		16.341479		5.510116		17.131817		95.672968		-11.294573		-0.213336		-124.107495		20.675470		8.801010		22.621655		-63.452432		-8.073593		0.509837		20.491431		7.853269		-5.331440		83.765472		-28.115306		7.963606		72.626112		109.575068		-11.887968		-15.252862		-32.570974		104.911154		-26.160491		32.771462		65.671581		125.185599		-19.957172		-12.592210		-13.357450		
2.917273		-4.005879		-8.349994		87.363292		0.011162		0.456590		0.481071		100.328247		1.671869		5.858793		-126.592389		16.299260		6.091076		17.456198		96.169895		-11.668192		-0.054363		-124.197743		20.576246		9.648703		22.762213		-63.467653		-8.286530		0.405757		20.660220		7.766282		-5.331978		85.332710		-27.978465		8.485874		72.000550		109.058809		-11.492590		-15.198946		-32.756109		106.306362		-25.544708		33.148592		64.660372		124.560799		-19.466365		-12.188159		-13.673279		
2.920379		-4.116425		-8.579001		87.118297		0.012014		0.455670		0.481188		100.755553		1.867346		6.051872		-126.686957		16.298920		6.982619		17.993233		96.488654		-12.211840		0.171404		-124.306282		20.695658		11.086242		23.041439		-63.602961		-8.617410		0.337357		20.929701		7.794035		-5.402255		86.765199		-27.658487		8.769128		71.372080		108.269073		-11.232457		-15.201035		-33.232119		107.664085		-24.909451		33.568084		63.691118		123.645187		-19.031924		-11.689167		-14.228462		
2.923485		-4.209190		-8.859704		86.976197		0.012576		0.454788		0.481346		101.239860		1.927691		6.151630		-126.754523		16.182238		7.326421		18.261030		96.874914		-12.586411		0.324734		-124.368769		20.624019		11.879866		23.199758		-63.682177		-8.810905		0.235191		21.176581		7.750567		-5.431856		88.193000		-27.360668		9.095817		70.784606		108.001376		-11.008374		-15.073247		-33.441404		108.895251		-24.291205		33.797653		62.753427		123.179495		-18.707859		-11.241006		-14.472904		
2.926591		-4.317262		-9.073778		86.787197		0.013221		0.453985		0.481410		101.677232		2.030079		6.233279		-126.834497		16.019909		7.747982		18.631888		97.186848		-13.027531		0.470462		-124.448342		20.555536		12.910805		23.426824		-63.811328		-9.061424		0.155190		21.412294		7.752127		-5.476379		89.593194		-27.138327		9.474121		70.202998		107.658728		-10.784996		-14.997547		-33.765664		110.153507		-23.735019		34.209870		61.858376		122.555458		-18.360970		-10.802473		-14.843621		
2.929697		-4.434859		-9.197278		86.546407		0.014010		0.453403		0.481448		102.024142		2.189386		6.248334		-126.896004		15.687757		7.911412		19.151708		97.391569		-13.517290		0.603970		-124.525818		20.414809		13.998322		23.805885		-64.039061		-9.373583		0.078030		21.686960		7.791469		-5.514791		91.014405		-26.943527		9.887511		69.588949		107.614176		-10.658958		-14.934971		-34.218706		111.505271		-23.254477		34.868673		60.949336		121.753455		-18.038151		-10.422072		-15.447758		
2.932803		-4.526183		-9.481854		86.464758		0.014338		0.452568		0.481427		102.509910		2.074069		6.145847		-126.959995		15.587569		7.947777		19.276442		97.784467		-13.817171		0.577143		-124.589101		20.313233		14.278811		23.897734		-64.050473		-9.482007		-0.055273		21.887116		7.731163		-5.494793		92.257693		-26.610366		10.137228		69.077967		107.668891		-10.492013		-14.754724		-34.251333		112.459889		-22.694502		34.910263		60.168957		121.553168		-17.836185		-10.096716		-15.554785		
2.935909		-4.653785		-9.698575		86.302162		0.014782		0.451862		0.481456		102.953532		2.056355		6.055708		-127.015102		15.274313		7.905226		19.373385		98.112321		-14.172445		0.544543		-124.665428		20.060671		14.668312		23.991408		-64.132968		-9.677139		-0.144313		22.089900		7.674586		-5.479033		93.578185		-26.426258		10.515880		68.510941		107.953170		-10.342840		-14.629841		-34.226796		113.525752		-22.191379		35.181504		59.355007		121.459778		-17.568683		-9.871196		-15.641282		
2.939015		-4.793934		-9.846650		86.081689		0.015391		0.451313		0.481444		103.318183		2.119626		5.934177		-127.063918		14.899703		7.744395		19.512077		98.342984		-14.596137		0.497370		-124.740755		19.826131		15.098421		24.137117		-64.280603		-9.934617		-0.216194		22.314137		7.656265		-5.476148		94.869196		-26.240827		10.870160		67.938528		108.383647		-10.281021		-14.577931		-34.231871		114.612145		-21.732757		35.563020		58.533998		121.345265		-17.330551		-9.734131		-15.824810		
2.942121		-4.922574		-10.053485		85.899991		0.015901		0.450766		0.481446		103.700680		2.104333		5.753024		-127.087378		14.672151		7.549618		19.588845		98.627664		-14.977090		0.382367		-124.802593		19.700301		15.277232		24.228167		-64.351096		-10.145793		-0.306260		22.532228		7.620847		-5.465062		96.081933		-25.950837		11.116049		67.349666		108.722201		-10.210977		-14.513741		-34.190761		115.565786		-21.225153		35.751772		57.749803		121.321417		-17.154577		-9.612276		-15.943778		
